<svg id="Layer_1" enable-background="new 0 0 64 64" height="512" viewBox="0 0 64 64" width="512" xmlns="http://www.w3.org/2000/svg"><path d="m48.9 35.4-7.9-3.4h-18l-7.9 3.4c-3.7 1.6-6.1 5.2-6.1 9.2v16.4h46v-16.4c0-4-2.4-7.6-6.1-9.2z" fill="#068e6a"/><path d="m44 46h-24c-1.1 0-2 .9-2 2v13h28v-13c0-1.1-.9-2-2-2z" fill="#d6d7d8"/><g fill="#b4b4b5"><path d="m27.3 57.7-3.7-3.7 3.7-3.7 1.4 1.4-2.3 2.3 2.3 2.3z"/><path d="m28.8 53h6.3v2h-6.3z" transform="matrix(.316 -.949 .949 .316 -29.35 67.272)"/><path d="m36.7 57.7-1.4-1.4 2.3-2.3-2.3-2.3 1.4-1.4 3.7 3.7z"/></g><path d="m32 42c5 0 9-4 9-9v-1h-18v1c0 5 4 9 9 9z" fill="#d8ac9e"/><path d="m20 19c-1.1 0-2 .9-2 2v1.8c0 .8.4 1.5 1.1 1.8l2.9 1.4v-7z" fill="#d8ac9e"/><path d="m44 19h-2v7l2.9-1.4c.7-.3 1.1-1 1.1-1.8v-1.8c0-1.1-.9-2-2-2z" fill="#d8ac9e"/><path d="m45.1 7.8-2.1-4.8-2.3 1.2c-1.1.5-2.3.8-3.6.8h-14.4c-.5 0-.9.2-1.2.4l-1.3 1c-1.8 1.5-2.4 4-1.3 6.1l3.1 6.5h20l3.2-6.7c.5-1.5.5-3.1-.1-4.5z" fill="#6d4444"/><path d="m34.3 15c-2.2 0-4.3-.7-6-2l-1.3-1-3.2 1.6c-1.7.8-2.8 2.6-2.8 4.5v8c0 3.7 2 7 5.2 8.8l2.4 1.3c2.1 1.1 4.6 1.1 6.7 0l2.4-1.3c3.2-1.8 5.2-5.1 5.2-8.8v-11.1z" fill="#f7d2c4"/><path d="m38 21h5v2h-5z" fill="#b4b4b5"/><path d="m21 21h5v2h-5z" fill="#b4b4b5"/><path d="m25 22c0 1.7 1.3 3 3 3h.4c1 0 1.9-.5 2.5-1.3l2.2-3.3c.6-.8 1.5-1.3 2.5-1.3h.4c1.7 0 3 1.3 3 3 0 1.7-1.3 3-3 3h-.4c-1 0-1.9-.5-2.5-1.3l-2.2-3.3c-.6-.8-1.5-1.3-2.5-1.3h-.4c-1.7-.2-3 1.1-3 2.8z" fill="#bcc6ce"/></svg>