<svg id="Layer_1" enable-background="new 0 0 64 64" height="512" viewBox="0 0 64 64" width="512" xmlns="http://www.w3.org/2000/svg"><path d="m49.5 36.2-10.5-5.2h-14l-10.5 5.2c-3.4 1.7-5.5 5.2-5.5 9v15.8h46v-15.8c0-3.8-2.1-7.3-5.5-9z" fill="#3f3f3f"/><path d="m18 47h2v14h-2z" fill="#2b2b2b"/><path d="m46 41h2v17h-2z" fill="#a0a0a0"/><path d="m25 39 7 10 7-10-7-5z" fill="#f4e8cb"/><g fill="#2b2b2b"><path d="m31 47h2v11h-2z"/><path d="m27 51h2v2h-2z"/><path d="m27 56h2v2h-2z"/></g><path d="m49 57h-4c-1.1 0-2 .9-2 2v2h8v-2c0-1.1-.9-2-2-2z" fill="#727272"/><path d="m33 39h-2l-1.9 5.8 2.9 4.2 2.9-4.2z" fill="#ddad6f"/><circle cx="32" cy="37" fill="#edc17c" r="3"/><path d="m25 31-4.1 2 3.1 7 8-6v-3z" fill="#2b2b2b"/><path d="m39 31 4.1 2-3.1 7-8-6v-3z" fill="#2b2b2b"/><path d="m38.9 3h-4.3c-.4 0-.8.1-1.1.3l-2.5 1.7-2.5-1.7c-.3-.2-.7-.3-1.1-.3h-2.3c-3.3 0-6 2.7-6 6 0 .6.1 1.2.3 1.8l1.6 5.2h22l1.6-5.2c1-3.2-.8-6.5-4-7.5-.5-.2-1.1-.3-1.7-.3z" fill="#6d4444"/><path d="m44 18h-2v7l3.2-2.4c.5-.4.8-1 .8-1.6v-1c0-1.1-.9-2-2-2z" fill="#eaa28c"/><path d="m20 18c-1.1 0-2 .9-2 2v1c0 .6.3 1.2.8 1.6l3.2 2.4v-7z" fill="#eaa28c"/><path d="m37.8 31.8-2.4 1.3c-2.1 1.1-4.6 1.1-6.7 0l-2.4-1.3c-3.3-1.7-5.3-5.1-5.3-8.7v-7.1c0-1.1.9-2 2-2h10.2c.5 0 1-.2 1.4-.6l2.4-2.4.5 1.6c.3.8 1 1.4 1.9 1.4h1.6c1.1 0 2 .9 2 2v7.1c0 3.6-2 7-5.2 8.7z" fill="#f7b49a"/><path d="m40 43h14v2h-14z" fill="#8c8c8c"/><path d="m43 50v1c0 1.7-1.3 3-3 3-1.7 0-3-1.3-3-3v-1z" fill="#e28b00"/><path d="m40 44 3 6h-6z" fill="#ffa500"/><path d="m51 50v1c0 1.7 1.3 3 3 3 1.7 0 3-1.3 3-3v-1z" fill="#e28b00"/><path d="m54 44-3 6h6z" fill="#ffa500"/></svg>