<svg id="Layer_1" enable-background="new 0 0 64 64" height="512" viewBox="0 0 64 64" width="512" xmlns="http://www.w3.org/2000/svg"><path d="m37.2 4.3-.8-.4c-2.8-1.2-6-1.2-8.8 0l-.8.4c-6.4 2.8-10.3 9.5-9.5 16.4l1.7 15.3h26l1.7-15.3c.8-7-3.1-13.6-9.5-16.4z" fill="#56333d"/><path d="m49.5 38.2-12.5-6.2h-10l-12.5 6.2c-3.4 1.7-5.5 5.2-5.5 9v13.8h46v-13.8c0-3.8-2.1-7.3-5.5-9z" fill="#72cc9f"/><path d="m36 42-2 19h-4l-2-19 4-3z" fill="#0db283"/><path d="m18 50h2v11h-2z" fill="#37bc93"/><path d="m17.1 37 8.9 7 6-5v-7h-5z" fill="#038960"/><path d="m46.9 37-8.9 7-6-5v-7h5z" fill="#038960"/><path d="m36.1 38.1 6.9-3.1-6-3h-10l-6 3 6.9 3.1c2.6 1.2 5.6 1.2 8.2 0z" fill="#f4bdab"/><path d="m39.6 14.8 1.3.6c.7.3 1.1 1 1.1 1.8v4.8c0 4.9-2.8 9.4-7.2 11.6l-1 .5c-1.1.6-2.5.6-3.6 0l-1-.5c-4.4-2.2-7.2-6.7-7.2-11.6v-4.7c0-.8.4-1.5 1.1-1.8l1.3-.6c4.8-2.5 10.4-2.5 15.2-.1z" fill="#f9dbd4"/><path d="m28.5 47 1.5 14h4l1.5-14z" fill="#37bc93"/><path d="m44 50h2v11h-2z" fill="#37bc93"/><circle cx="47.5" cy="54.5" fill="#f4e8cb" r="6.5"/><path d="m54 54.5c0-1.7-.7-3.4-1.9-4.6l-9.2 9.2c2.5 2.5 6.7 2.5 9.2 0 1.2-1.2 1.9-2.9 1.9-4.6z" fill="#e0d0b3"/><path d="m53.5 43c1.9 0 3.5 1.6 3.5 3.5v11c0 1.9-1.6 3.5-3.5 3.5-1.9 0-3.5-1.6-3.5-3.5v-11c0-1.9 1.6-3.5 3.5-3.5z" fill="#e28b00"/><path d="m53.5 43c1.9 0 3.5 1.6 3.5 3.5v5.5h-7v-5.5c0-1.9 1.6-3.5 3.5-3.5z" fill="#fcc56d"/></svg>