<svg id="Layer_1" enable-background="new 0 0 64 64" height="512" viewBox="0 0 64 64" width="512" xmlns="http://www.w3.org/2000/svg"><path d="m49.7 30-.2-.1c-.9-.5-1.5-1.5-1.5-2.6v-5.9c0-7.5-4.5-14.4-11.4-17.4l-.2-.1c-2.8-1.2-6-1.2-8.8 0l-.2.1c-6.9 3-11.4 9.9-11.4 17.4v5.9c0 1.1-.6 2-1.5 2.6l-.2.1c-1.4.9-1.9 2.7-1 4.1.1.2.3.4.5.6l3.2 3.3h30l3.3-3.3c1.2-1.2 1.2-3.1 0-4.2-.2-.2-.4-.4-.6-.5z" fill="#aa622d"/><path d="m49.1 38.4-17.1-7.4-17.1 7.4c-3.6 1.6-5.9 5.1-5.9 9.1v13.5h46v-13.5c0-4-2.3-7.5-5.9-9.1z" fill="#e8c5bc"/><path d="m22 17v5.9c0 4.9 3 9.3 7.5 11.1l.2.1c1.4.6 3 .6 4.5 0l.2-.1c4.6-1.8 7.6-6.2 7.6-11.1v-6.8c0-.7-.3-1.3-.9-1.7l-3.7-2.5c-.8-.5-1.8-.4-2.5.2l-.5.5c-1.5 1.5-3.5 2.3-5.7 2.3h-4.7c-1.1.1-2 1-2 2.1z" fill="#f7d2c4"/><path d="m47.8 43.1 2.5-4c-.4-.3-.8-.5-1.3-.7l-6.4-2.7-2.1 4.3c-.3.7-1 1.1-1.8 1.1h-13.5c-.8 0-1.5-.4-1.8-1.1l-2.1-4.3-6.4 2.7c-.4.2-.9.4-1.3.7l2.5 4c1.2 1.9 1.8 4.1 1.8 6.4v11.5h28v-11.6c.1-2.2.7-4.4 1.9-6.3z" fill="#8c4853"/><path d="m38 54 3 3" fill="none" stroke="#000" stroke-miterlimit="10" stroke-width="2"/><path d="m49.4 52.6 1.6-1.6 4.7-2.7c1-.5 1.3-1.8.7-2.7-.1-.2-.2-.3-.3-.4l-6.3-6.3c-.8-.8-2-.8-2.8 0-.1.1-.2.3-.3.4l-2.7 4.7-1.6 1.6c-.8.8-.8 2 0 2.8l4.2 4.2c.8.8 2 .8 2.8 0z" fill="#d3af6e"/><path d="m43 49-8.4 8.4c-.4.4-.6.9-.6 1.5 0 1.2.9 2.1 2.1 2.1.6 0 1.1-.2 1.5-.6l8.4-8.4z" fill="#3a3a51"/><g fill="#aa864d"><path d="m42.4 48.4 4.2 4.2c.8.8 2 .8 2.8 0l1.6-1.6-7-7-1.6 1.6c-.8.8-.8 2 0 2.8z"/><path d="m44.9 42.3h7.8v2h-7.8z" transform="matrix(.707 -.707 .707 .707 -16.304 47.139)"/><path d="m47.9 45.3h7.8v2h-7.8z" transform="matrix(.707 -.707 .707 .707 -17.547 50.139)"/><path d="m42.4 48.4 4.2 4.2c.8.8 2 .8 2.8 0l1.6-1.6-7-7-1.6 1.6c-.8.8-.8 2 0 2.8z"/></g></svg>