<svg id="Layer_1" enable-background="new 0 0 64 64" height="512" viewBox="0 0 64 64" width="512" xmlns="http://www.w3.org/2000/svg"><path d="m48.8 40.5-16.8-6.5-16.8 6.5c-3.8 1.5-6.2 5.1-6.2 9.2v11.3h46v-11.3c0-4.1-2.4-7.7-6.2-9.2z" fill="#5b627c"/><path d="m31 49h2v12h-2z" fill="#3a3a51"/><path d="m14 41 9.9 7.2c.7.5 1.5.8 2.4.8h4.7l-.6-2.5c-.2-.9-1-1.5-1.9-1.5h-1.4c-1.3 0-2.5-.6-3.3-1.7l-3.5-4.8-5.1 2c-.4.1-.8.3-1.2.5z" fill="#7f86ad"/><path d="m50 41-9.9 7.2c-.7.5-1.5.8-2.4.8h-4.7l.6-2.5c.2-.9 1-1.5 1.9-1.5h1.5c1.3 0 2.5-.6 3.3-1.7l3.5-4.8 5.1 2c.3.1.7.3 1.1.5z" fill="#7f86ad"/><path d="m32 34-11.7 4.5.7 1 2.7 3.8c.8 1.1 2 1.7 3.3 1.7h1.4c.9 0 1.7.6 1.9 1.5l.7 2.5h2l.6-2.5c.2-.9 1-1.5 1.9-1.5h1.5c1.3 0 2.5-.6 3.3-1.7l3.5-4.8z" fill="#3a3a51"/><path d="m23 25-2.6-2.6c-.3-.3-.6-.4-1-.4-.8 0-1.4.6-1.4 1.4v2.8c0 .5.3 1 .7 1.2l4.3 2.6z" fill="#ce7c5f"/><path d="m44.6 22c-.4 0-.7.1-1 .4l-2.6 2.6v5l4.3-2.6c.4-.3.7-.7.7-1.2v-2.8c0-.8-.6-1.4-1.4-1.4z" fill="#ce7c5f"/><path d="m21 20v8.3c0 2.9 1.6 5.6 4.2 7l3 1.6c2.4 1.3 5.3 1.3 7.7 0l3-1.6c2.6-1.4 4.2-4.1 4.2-7v-8.3z" fill="#d8927c"/><path d="m35 5.3h-6c-5.9 1.4-10 6.7-10 12.7v2h26v-2c0-6-4.1-11.3-10-12.7z" fill="#ffa500"/><path d="m33 3h-2c-1.1 0-2 .9-2 2v8h6v-8c0-1.1-.9-2-2-2z" fill="#e28b00"/><path d="m41 16h-18c-2.2 0-4 1.8-4 4h26c0-2.2-1.8-4-4-4z" fill="#e28b00"/><path d="m19 48.9h2v8.2h-2z" fill="#d3c6af" transform="matrix(.97 -.243 .243 .97 -12.257 6.433)"/><path d="m18 53h9v8h-9z" fill="#7f86ad"/><path d="m18 53h9v4h-9z" fill="#747d99"/><path d="m47 35h6v22h-6z" fill="#e5e1dc"/><g fill="#d3d1cf"><ellipse cx="50" cy="35" rx="3" ry="2"/><path d="m39 61h18v-25zm14-4h-6l6-9z"/></g></svg>