<svg id="Layer_1" enable-background="new 0 0 64 64" height="512" viewBox="0 0 64 64" width="512" xmlns="http://www.w3.org/2000/svg"><path d="m51.4 38-10.4-3h-18l-10.4 3c-2.1.6-3.6 2.5-3.6 4.8v18.2h46v-18.2c0-2.3-1.5-4.2-3.6-4.8z" fill="#3f3f3f"/><path d="m55 45-6.3 2.1c-1.6.5-2.7 2.1-2.7 3.8v10.1h9z" fill="#686868"/><path d="m9 45 6.3 2.1c1.6.5 2.7 2.1 2.7 3.8v10.1h-9z" fill="#686868"/><path d="m46 57h-28v-5h28z" fill="#ffa500"/><path d="m32 35h-9l-10.4 3c-1.5.4-2.8 1.6-3.3 3.1l22.7 3.9 22.7-3.9c-.5-1.5-1.8-2.6-3.3-3.1l-10.4-3z" fill="#ffa500"/><path d="m44 22h-2v7l2.9-1.4c.7-.3 1.1-1 1.1-1.8v-1.8c0-1.1-.9-2-2-2z" fill="#bc6d55"/><path d="m20 22c-1.1 0-2 .9-2 2v1.8c0 .8.4 1.5 1.1 1.8l2.9 1.4v-7z" fill="#bc6d55"/><path d="m21 18v11.8c0 3.1 1.8 6 4.7 7.3l2.2 1c2.6 1.2 5.6 1.2 8.3 0l2.2-1c2.9-1.3 4.7-4.1 4.7-7.3v-11.8z" fill="#ce7c5f"/><path d="m35 7h-6c-5.5 0-10 4.5-10 10v1c0 1.1.9 2 2 2h22c1.1 0 2-.9 2-2v-1c0-5.5-4.5-10-10-10z" fill="#ffa500"/><path d="m45 16h-26v2c0 1.1.9 2 2 2h22c1.1 0 2-.9 2-2z" fill="#e28b00"/><path d="m32.8 3h-1.5c-1.1 0-2 .9-2 2v.2l.7 6.8h4l.8-6.8c.1-1.1-.7-2.1-1.8-2.2-.1 0-.2 0-.2 0z" fill="#e28b00"/><path d="m25.7 12.3-3-3c-.5.4-1 .9-1.4 1.4l3 3z" fill="#fcc56d"/><path d="m39.7 13.7 3-3c-.4-.5-.9-1-1.4-1.4l-3 3z" fill="#fcc56d"/><path d="m31 39h2v22h-2z" fill="#e28b00"/><path d="m48 46-10.5 10.5c-.8.8-.8 2.2 0 3s2.2.8 3 0l10.5-10.5z" fill="#96683e"/><path d="m52.6 50.7-9.6-8.7 5.2-.7c1.2-.2 2.3.2 3.2.9l5 4.4c.8.7.9 2 .2 2.8 0 0-.1.1-.1.1l-1.1 1.1c-.8.8-2 .8-2.8.1z" fill="#2b2b2b"/><path d="m45 55-3-3-4.5 4.5c-.8.8-.8 2.2 0 3 .8.8 2.2.8 3 0z" fill="#825729"/></svg>