<svg id="Layer_1" enable-background="new 0 0 64 64" height="512" viewBox="0 0 64 64" width="512" xmlns="http://www.w3.org/2000/svg"><path d="m49.3 39.3-11.3-5.3h-12l-11.3 5.3c-3.5 1.6-5.7 5.2-5.7 9v12.7h46v-12.7c0-3.8-2.2-7.4-5.7-9z" fill="#e5e1dc"/><path d="m49.3 39.3-4.6-2.2-11.6 6.3c-.6.3-1.1 1-1.1 1.8v15.8h23v-12.7c0-3.8-2.2-7.4-5.7-9z" fill="#d3d1cf"/><g fill="#c6c6c6"><path d="m28 50h2v2h-2z"/><path d="m28 55h2v2h-2z"/><path d="m19 52h2v9h-2z"/></g><path d="m46 47v-2.5c0-3 2.5-5.5 5.5-5.5 3 0 5.5 2.5 5.5 5.5 0 3-2.5 5.5-5.5 5.5h-2.5l-8.2 10c-.5.6-1.3 1-2.1 1-1.5 0-2.7-1.2-2.7-2.7v-.2c0-.7.3-1.4.8-1.9z" fill="#686868"/><path d="m32 48v-2.8c0-.7.4-1.4 1.1-1.8l11.6-6.3 1.4.7-8.1-3.8h-12l-5.8 2.7 7.1 6.7c.4.4.7.9.7 1.5v3.1z" fill="#c6c6c6"/><path d="m21 18-.9-11.3c-.1-1 .6-1.9 1.5-2.1l2.4-.6c5.3-1.3 10.8-1.3 16 0l2.4.6c.9.2 1.6 1.1 1.5 2.1l-.9 11.3" fill="#d3d1cf"/><path d="m38.5 11.8c-4.3-1.1-8.8-1.1-13 0l-4.9 1.2.4 5h22l.4-5z" fill="#e5e1dc"/><path d="m44 20h-2v7l3.2-2.4c.5-.4.8-1 .8-1.6v-1c0-1.1-.9-2-2-2z" fill="#eaa28c"/><path d="m20 20c-1.1 0-2 .9-2 2v1c0 .6.3 1.2.8 1.6l3.2 2.4v-7z" fill="#eaa28c"/><path d="m21 18v7.5c0 3.4 1.7 6.6 4.6 8.4l3.1 2c2 1.3 4.5 1.3 6.4 0l3.1-2c2.9-1.8 4.6-5 4.6-8.4v-7.5l-3.9-1.1c-4.7-1.3-9.6-1.3-14.2 0z" fill="#f7b49a"/><path d="m25 3.8.9 7.5v.1.3c2-.5 4-.7 6-.7v-8c-2.3 0-4.6.3-6.9.8z" fill="#efedea"/><path d="m39 3.8-.9 7.5v.1.3c-2-.5-4-.7-6-.7v-8c2.3 0 4.6.3 6.9.8z" fill="#dddbd9"/></svg>