<svg id="Layer_1" enable-background="new 0 0 64 64" height="512" viewBox="0 0 64 64" width="512" xmlns="http://www.w3.org/2000/svg"><path d="m49.7 35.7-10.7-2.7h-14l-10.7 2.7c-3.1.8-5.3 3.6-5.3 6.8v18.5h46v-18.5c0-3.2-2.2-6-5.3-6.8z" fill="#3f3f3f"/><path d="m32 46 8.7-12.6-1.7-.4h-14l-1.7.4z" fill="#102e42"/><path d="m40.7 33.4-8.7 12.6-8.7-12.6-5.4 1.4 14.1 26.2 14.1-26.2z" fill="#f4a422"/><path d="m20 21c-1.1 0-2 .9-2 2v.8c0 .8.4 1.5 1.1 1.8l2.9 1.4v-6z" fill="#eaa28c"/><path d="m44 21h-2v6l2.9-1.4c.7-.3 1.1-1 1.1-1.8v-.8c0-1.1-.9-2-2-2z" fill="#eaa28c"/><path d="m35 6h-6c-4.4 0-8 3.6-8 8v2h22v-2c0-4.4-3.6-8-8-8z" fill="#d6d7d8"/><path d="m21 16v9.1c0 3.7 2 7 5.2 8.8l2.4 1.3c2.1 1.1 4.6 1.1 6.7 0l2.4-1.3c3.2-1.8 5.2-5.1 5.2-8.8v-9.1z" fill="#f7b49a"/><path d="m22 14h20c1.1 0 2 .9 2 2 0 1.1-.9 2-2 2h-20c-1.1 0-2-.9-2-2 0-1.1.9-2 2-2z" fill="#b4b4b5"/><path d="m19 50h2v11h-2z" fill="#686868"/><path d="m31 44h2v17h-2z" fill="#102e42"/><path d="m32 3c-1.7 0-3 1.3-3 3v5h6v-5c0-1.7-1.3-3-3-3z" fill="#b4b4b5"/><path d="m43 50h2v11h-2z" fill="#b4b4b5"/><path d="m41 43h14c1.1 0 2 .9 2 2v14c0 1.1-.9 2-2 2h-14c-1.1 0-2-.9-2-2v-14c0-1.1.9-2 2-2z" fill="#f4e8cb"/><path d="m45 43v2h6v-2c0-1.1-.9-2-2-2h-2c-1.1 0-2 .9-2 2z" fill="#e5b385"/><g fill="#e0d0b3"><path d="m42 48h12v2h-12z"/><path d="m42 52h12v2h-12z"/><path d="m42 56h12v2h-12z"/></g></svg>