<svg id="Layer_1" enable-background="new 0 0 64 64" height="512" viewBox="0 0 64 64" width="512" xmlns="http://www.w3.org/2000/svg"><path d="m50.9 39.6-10.9-3.6v-5h-16v5l-10.9 3.6c-2.4.8-4.1 3.1-4.1 5.7v15.7h46v-15.7c0-2.6-1.7-4.9-4.1-5.7z" fill="#1b4666"/><path d="m50.9 39.6-10.9-3.6v3l-8 4-3 2v16h26v-15.7c0-2.6-1.7-4.9-4.1-5.7z" fill="#215987"/><path d="m24 31v8l8 4 8-4v-8z" fill="#f7d289"/><g fill="#edc17c"><path d="m24 31v8l8 4v-12z"/><path d="m32 52h2v2h-2z"/><path d="m32 56h2v2h-2z"/><path d="m32 48h2v2h-2z"/></g><path d="m36 47h8v2h-8z" fill="#e5e1dc"/><path d="m44 51h2v10h-2z" fill="#1b4666"/><path d="m18 51h2v10h-2z" fill="#215987"/><path d="m44 19h-2v7l3.2-2.4c.5-.4.8-1 .8-1.6v-1c0-1.1-.9-2-2-2z" fill="#eaa28c"/><path d="m20 19c-1.1 0-2 .9-2 2v1c0 .6.3 1.2.8 1.6l3.2 2.4v-7z" fill="#eaa28c"/><path d="m21 12v11.9c0 3.8 1.8 7.4 4.9 9.7l.8.6c3.2 2.3 7.4 2.3 10.6 0l.8-.6c3.1-2.3 4.9-5.9 4.9-9.7v-11.9z" fill="#f7b49a"/><path d="m42.8 4.7-10.8-1.7-10.8 1.7c-1.1.2-1.8 1.2-1.7 2.3 0 .1 0 .2.1.2l1.4 4.8h22l1.4-4.8c.3-1.1-.3-2.2-1.4-2.5-.1 0-.2 0-.2 0z" fill="#1b4666"/><path d="m21 16 .1.2c4 6 12.1 7.6 18.1 3.6 1.4-1 2.7-2.2 3.6-3.6l.2-.2z" fill="#1b4666"/><path d="m21 12h22v4h-22z" fill="#f7d289"/></svg>