<svg id="Layer_1" enable-background="new 0 0 64 64" height="512" viewBox="0 0 64 64" width="512" xmlns="http://www.w3.org/2000/svg"><path d="m48.7 33.5-8.7-3.5h-16l-8.7 3.5c-3.8 1.5-6.3 5.2-6.3 9.3v18.2h46v-18.2c0-4.1-2.5-7.8-6.3-9.3z" fill="#8fb8cc"/><g fill="#102e40"><path d="m38 38h2v13h-2z"/><circle cx="39" cy="53" r="3"/><path d="m24 38h2v10h-2z"/><path d="m29 57h-3v-2h1v-3.3c0-.8-.3-1.6-.9-2.1l-1.1-1.2-1.1 1.1c-.6.6-.9 1.3-.9 2.1v3.4h1v2h-3v-5.3c0-1.3.5-2.6 1.5-3.5l2.5-2.5 2.5 2.5c.9.9 1.5 2.2 1.5 3.5z"/></g><path d="m31 34h2v27h-2z" fill="#066b93"/><path d="m17 49h2v12h-2z" fill="#739fad"/><path d="m45 49h2v12h-2z" fill="#739fad"/><path d="m49.9 39.1c-.5.5-.7 1.3-.5 2l1.2 3.5c.3.8 1 1.4 1.9 1.4h2.5v-3.2c0-2.4-.8-4.6-2.3-6.4z" fill="#e5e1dc"/><path d="m14.1 39.1c.5.5.7 1.3.5 2l-1.2 3.5c-.3.8-1 1.4-1.9 1.4h-2.5v-3.2c0-2.4.8-4.6 2.3-6.4z" fill="#e5e1dc"/><path d="m32 30v4l7 6 8.2-7.1-7.2-2.9z" fill="#066b93"/><path d="m32 30v4l-7 6-8.2-7.1 7.2-2.9z" fill="#066b93"/><path d="m44 18h-2v6l2.9-1.4c.7-.3 1.1-1 1.1-1.8v-.8c0-1.1-.9-2-2-2z" fill="#eaa28c"/><path d="m20 18c-1.1 0-2 .9-2 2v.8c0 .8.4 1.5 1.1 1.8l2.9 1.4v-6z" fill="#eaa28c"/><path d="m38 3h-12c-3.3 0-6 2.7-6 6 0 .3 0 .6.1.9l.9 6.1h22l.9-6.1c.5-3.3-1.7-6.3-5-6.8-.3-.1-.6-.1-.9-.1z" fill="#6d4444"/><path d="m36.6 32.9-.4.2c-2.6 1.2-5.6 1.2-8.3 0l-.4-.2c-3.9-1.8-6.4-5.7-6.4-10v-7.9l13.4-2.9c.4-.1.8-.1 1.1.1l7.4 2.8v7.9c0 4.3-2.5 8.2-6.4 10z" fill="#f7b49a"/></svg>