<svg id="Layer_1" enable-background="new 0 0 64 64" height="512" viewBox="0 0 64 64" width="512" xmlns="http://www.w3.org/2000/svg"><path d="m49.5 37.2-10.5-5.2h-14l-10.5 5.2c-3.4 1.7-5.5 5.2-5.5 9v14.8h46v-14.8c0-3.8-2.1-7.3-5.5-9z" fill="#068e6a"/><g fill="#d8ac9e"><path d="m31.8 41h.4c4.6 0 8.6-3.1 9.7-7.6l-2.9-1.4h-14l-2.9 1.4c1.1 4.5 5.1 7.6 9.7 7.6z"/><path d="m20 19c-1.1 0-2 .9-2 2v1c0 .6.3 1.2.8 1.6l3.2 2.4v-7z"/><path d="m44 19h-2v7l3.2-2.4c.5-.4.8-1 .8-1.6v-1c0-1.1-.9-2-2-2z"/></g><path d="m41.4 3.2-1.9 1.4c-.3.3-.7.4-1.2.4h-13.3c-2.2 0-4 1.8-4 4v7h22v-12c0-.6-.4-1-1-1-.2 0-.4.1-.6.2z" fill="#2b2b2b"/><path d="m18 50h2v11h-2z" fill="#12ad80"/><path d="m44 50h2v11h-2z" fill="#12ad80"/><path d="m41.9 15.6c-4.5-1.7-9.3-2-14-1l-6.9 1.4v7.9c0 3.2 1.5 6.2 4.1 8.1l3.9 2.9c1.8 1.3 4.1 1.3 5.9 0l3.9-2.9c2.6-1.9 4.1-4.9 4.1-8.1v-7.9z" fill="#f7d2c4"/><path d="m40.9 33-2.9 16.8 2 .4 2.8-16.3z" fill="#3f3f3f"/><path d="m21.2 33.9 2.8 16.3 2-.4-2.9-16.8z" fill="#3f3f3f"/><path d="m39 47h-3l-.4-.9c-.3-.7-1-1.1-1.8-1.1h-3.5c-.8 0-1.5.4-1.8 1.1l-.5.9h-3c-1.1 0-2 .9-2 2v10c0 1.1.9 2 2 2h14c1.1 0 2-.9 2-2v-10c0-1.1-.9-2-2-2z" fill="#2b2b2b"/><circle cx="32" cy="54" fill="#686868" r="3"/><path d="m38 50h3v2h-3z" fill="#3f3f3f"/></svg>