<svg id="Layer_1" enable-background="new 0 0 64 64" height="512" viewBox="0 0 64 64" width="512" xmlns="http://www.w3.org/2000/svg"><path d="m47.9 18c-.5-8.8-8-15.5-16.8-15-8.1.5-14.5 6.9-15 15l-1.1 20h34z" fill="#2b2b2b"/><path d="m49.5 38.2-10.5-5.2h-14l-10.5 5.2c-3.4 1.7-5.5 5.2-5.5 9v13.8h46v-13.8c0-3.8-2.1-7.3-5.5-9z" fill="#97cec5"/><path d="m42 34.5-10 4.5-10-4.5-5.6 2.8 6.8 6c.5.4 1.2.6 1.8.4l1-.2c1.1-.3 2.2.4 2.4 1.5v.1l3.6 15.9 3.6-16c.2-1.1 1.3-1.8 2.4-1.5h.1l1 .2c.6.2 1.3 0 1.8-.4l6.8-6z" fill="#d4f9f4"/><path d="m18 51h2v10h-2z" fill="#77aaa0"/><path d="m39.1 37.9 3.9-2.9-4-2h-14l-4 2 3.9 2.9c4.2 3 10 3 14.2 0z" fill="#239b70"/><path d="m42 16.3v9.6c0 3.8-2.1 7.3-5.5 8.9l-.5.2c-2.5 1.3-5.5 1.3-8 0l-.4-.2c-3.4-1.7-5.5-5.2-5.5-8.9v-6.5c0-2.8 1.9-5.2 4.7-5.9l9.2-2.1c2.7-.6 5.4 1.1 6 3.8z" fill="#e2c8ac"/><path d="m44 51h2v10h-2z" fill="#77aaa0"/><path d="m41 49h14c1.1 0 2 .9 2 2v8c0 1.1-.9 2-2 2h-14c-1.1 0-2-.9-2-2v-8c0-1.1.9-2 2-2z" fill="#3f3f3f"/><path d="m39 53h18v-2c0-1.1-.9-2-2-2h-14c-1.1 0-2 .9-2 2z" fill="#2b2b2b"/><path d="m47 53h2v3h-2z" fill="#686868"/><path d="m52 50h-2v-2c0-1.1-.9-2-2-2s-2 .9-2 2v2h-2v-2c0-2.2 1.8-4 4-4s4 1.8 4 4z" fill="#2b2b2b"/></svg>