<svg id="Layer_1" enable-background="new 0 0 64 64" height="512" viewBox="0 0 64 64" width="512" xmlns="http://www.w3.org/2000/svg"><path d="m50 32-2-1.5c-1.3-.9-2-2.4-2-4v-8.8c0-5.3-3-10.2-7.7-12.5l-2.7-1.3c-2.3-1.1-4.9-1.1-7.2 0l-2.7 1.3c-4.7 2.3-7.7 7.1-7.7 12.5v8.8c0 1.6-.7 3.1-2 4l-2 1.5c-2.2 1.7-2.7 4.8-1 7h38c1.7-2.2 1.2-5.3-1-7z" fill="#2b2b2b"/><path d="m50.1 38.1-12.1-7.1h-12l-12.1 7.1c-3 1.8-4.9 5.1-4.9 8.6v14.3h46v-14.3c0-3.5-1.9-6.8-4.9-8.6z" fill="#e5b385"/><path d="m18 47h2v14h-2z" fill="#ce9d78"/><path d="m27 38h10c2.2 0 4-1.8 4-4v-1.2l-3-1.8h-12l-3 1.8v1.2c0 2.2 1.8 4 4 4z" fill="#d8ac9e"/><path d="m36.6 14.8-7.4-2.1c-1.4-.4-2.9 0-3.9 1l-.6.6c-1.1 1.1-1.8 2.7-1.8 4.2v6.2c0 2.7 1.3 5.2 3.6 6.7l2.7 1.8c1.7 1.1 3.9 1.1 5.5 0l2.7-1.8c2.2-1.5 3.6-4 3.6-6.7v-4.2c0-2.7-1.8-5-4.4-5.7z" fill="#f9dbd4"/><path d="m44 47h2v14h-2z" fill="#ce9d78"/><path d="m54 42h-18c-1.1 0-2 .9-2 2v12h22v-12c0-1.1-.9-2-2-2z" fill="#087f5d"/><path d="m36.6 48.5h9.9v2h-9.9z" fill="#b27449" transform="matrix(.707 -.707 .707 .707 -22.847 43.843)"/><path d="m48 46h5v2h-5z" fill="#e5e1dc"/><path d="m46 50h7v2h-7z" fill="#e5e1dc"/><path d="m43.9 56.4-1.8-.8-2.2 5.4h2.2z" fill="#2b2b2b"/><path d="m47.9 55.6-1.8.8 1.8 4.6h2.2z" fill="#2b2b2b"/><path d="m32 55h26v2h-26z" fill="#3f3f3f"/></svg>