<svg id="Layer_1" enable-background="new 0 0 64 64" height="512" viewBox="0 0 64 64" width="512" xmlns="http://www.w3.org/2000/svg"><path d="m48.8 37.5-10.8-4.5h-12l-10.8 4.5c-3.8 1.5-6.2 5.1-6.2 9.2v14.3h46v-14.3c0-4.1-2.4-7.7-6.2-9.2z" fill="#e5e1dc"/><path d="m17 55h2v6h-2z" fill="#b4b4b5"/><path d="m38 36h2v7h-2z" fill="#1b4666"/><path d="m40 56v-2c.6 0 1-.4 1-1v-6.2c0-.3-.1-.5-.3-.7l-1.7-1.7-1.7 1.7c-.2.2-.3.4-.3.7v6.2c0 .6.4 1 1 1v2c-1.7 0-3-1.3-3-3v-6.2c0-.8.3-1.6.9-2.1l3.1-3.1 3.1 3.1c.6.6.9 1.3.9 2.1v6.2c0 1.7-1.3 3-3 3z" fill="#102e42"/><path d="m24 36h2v14h-2z" fill="#1b4666"/><circle cx="25" cy="52" fill="#102e42" r="3"/><path d="m45 55h2v6h-2z" fill="#b4b4b5"/><path d="m31 38h2v23h-2z" fill="#d6d7d8"/><path d="m22.7 36.1c5.7 3.6 12.9 3.8 18.7.4l2-1.2-5.4-2.3h-12l-4.9 2z" fill="#b4b4b5"/><path d="m43.5 5.7c-.3.2-.7.3-1 .3h-20.5c-3.3 0-6 2.7-6 6v4.9c0 2.7 1.1 5.2 2.9 7.1l1.1 1h24l1.1-1.1c1.9-1.9 2.9-4.4 2.9-7.1v-13.8z" fill="#6d4444"/><path d="m20 15v8.6c0 3.3 1.7 6.5 4.5 8.3l.9.6c4 2.7 9.3 2.7 13.3 0l.9-.6c2.8-1.9 4.5-5 4.5-8.3v-8.6c0-1.1-.9-2-2-2h-20.1c-1.1 0-2 .9-2 2z" fill="#f7d2c4"/><path d="m39 19h5v2h-5z" fill="#b4b4b5"/><path d="m20 19h5v2h-5z" fill="#b4b4b5"/><path d="m26.5 18h2.3c.8 0 1.5.3 2 .9l2.5 3.1c.5.6 1.2.9 2 .9h2.3c1.4 0 2.5-1.1 2.5-2.5 0-1.4-1.1-2.5-2.5-2.5h-2.3c-.8 0-1.5.3-2 .9l-2.5 3.1c-.5.6-1.2.9-2 .9h-2.3c-1.4 0-2.5-1.1-2.5-2.5 0-1.2 1.1-2.3 2.5-2.3z" fill="#beced3"/></svg>