<svg id="Layer_1" enable-background="new 0 0 64 64" height="512" viewBox="0 0 64 64" width="512" xmlns="http://www.w3.org/2000/svg"><path d="m48.5 34.6-9.5-3.6h-14l-9.5 3.6c-3.9 1.4-6.5 5.2-6.5 9.3v17.1h46v-17.1c0-4.1-2.6-7.9-6.5-9.3z" fill="#3bb7a8"/><path d="m16 47h9v2h-9z" fill="#059b89"/><path d="m45.7 57.5-.3 1.5c-.2 1.1-1.2 2-2.4 2-1.2 0-2.2-.8-2.4-1.9l-2.3-9.3c-.5-2.1.7-4.2 2.8-4.7.321-.079.6-.1.9-.1h.4c1.5 0 2.9 1 3.3 2.5.2.9 1 1.5 1.9 1.5.9 0 1.6-.6 1.9-1.5.4-1.5 1.7-2.5 3.3-2.5h.2c2.1 0 3.9 1.7 3.9 3.9 0 .3-.012.596-.1.9-.667 2.3-2.3 9.3-2.3 9.3-.3 1.1-1.3 1.9-2.5 1.9-1.2 0-2.2-.8-2.5-2l-.3-1.5c-.2-.9-.9-1.5-1.8-1.5-.8 0-1.5.6-1.7 1.5z" fill="#eaeaea"/><path d="m33.2 42.4-13.2-9.5-4.5 1.7c-.2.1-.4.2-.6.2l13.3 9.6c.5.4.8 1 .8 1.6v15h5v-17c0-.6-.3-1.2-.8-1.6z" fill="#059b89"/><path d="m44.7 33.2-5.7-2.2h-14l-5 1.9 11.1 8z" fill="#63c6ba"/><path d="m43.7 4.3-1.4-.7c-.9-.4-1.8-.6-2.7-.6h-15.2c-.9 0-1.9.2-2.7.6l-1.4.7c-2 1-3.3 3.1-3.3 5.4v7.1c0 .8.2 1.6.7 2.2l3.3 5h22l3.3-5c.4-.7.7-1.4.7-2.2v-7.1c0-2.3-1.3-4.3-3.3-5.4z" fill="#63c6ba"/><path d="m43 14.5v8.5c0 3.7-2 7-5.2 8.8l-2.4 1.3c-2.1 1.1-4.6 1.1-6.7 0l-2.4-1.3c-3.3-1.7-5.3-5.1-5.3-8.7v-8.5c0-.9.6-1.7 1.5-1.9l9-2.5c.3-.1.7-.1 1.1 0l9 2.5c.8.1 1.4.9 1.4 1.8z" fill="#f7d2c4"/><path d="m33.2 25 9.8-2v-2l-10.2 2z" fill="#e5e1dc"/><path d="m31.2 23-10.2-2v2l9.8 2z" fill="#e5e1dc"/><path d="m40 30-1.2-4.9c-.5-2-1.8-3.6-3.7-4.6-2-1-4.3-1-6.3 0-1.8.9-3.2 2.6-3.7 4.6l-1.1 4.9v.2c.7.6 1.4 1.2 2.2 1.6l2.4 1.3c2.1 1.1 4.6 1.1 6.7 0l2.4-1.3c.8-.4 1.6-1 2.2-1.6v-.2z" fill="#fcf8f2"/></svg>