<svg width="550" height="486" viewBox="0 0 550 486" fill="none" xmlns="http://www.w3.org/2000/svg">
<g clip-path="url(#clip0)">
<path d="M455.88 92.0457C437.062 92.0457 421.807 77.6224 421.807 59.8298C421.807 26.7864 393.476 0 358.528 0C323.58 0 295.25 26.7864 295.25 59.8293C295.25 77.6218 279.995 92.0452 261.176 92.0452C226.228 92.0457 197.897 118.832 197.897 151.875C197.897 184.918 226.228 211.704 261.176 211.704C279.994 211.704 295.249 226.128 295.249 243.92C295.25 276.964 323.58 303.75 358.528 303.75C393.476 303.75 421.807 276.964 421.807 243.921C421.807 226.128 437.061 211.705 455.88 211.705C490.828 211.704 519.159 184.918 519.159 151.875C519.159 118.832 490.828 92.0457 455.88 92.0457Z" fill="url(#paint0_linear)"/>
<path d="M431.507 27.0563V267.802C431.507 270.881 428.865 273.379 425.608 273.379H265.04C261.784 273.379 259.142 270.881 259.142 267.802V27.0563C259.142 23.9772 261.784 21.4796 265.04 21.4796H425.608C428.865 21.4796 431.507 23.9772 431.507 27.0563Z" fill="white"/>
<path d="M431.507 205.639V241.229L411.961 222.749C409.878 220.785 409.803 217.653 411.71 215.594L386.511 191.769C360.189 211.269 321.895 209.573 297.662 186.661C271.484 161.91 271.484 121.639 297.662 96.8885C323.84 72.1376 366.432 72.1376 392.61 96.8885C416.843 119.8 418.644 156.007 398.013 180.894L423.211 204.72C425.389 202.916 428.702 202.987 430.779 204.951L431.507 205.639Z" fill="#EBEBFF"/>
<path d="M285.658 225.644C285.658 239.491 273.786 250.715 259.141 250.715V200.573C273.787 200.573 285.658 211.797 285.658 225.644Z" fill="#EBEBFF"/>
<path d="M431.507 27.0563V207.349H259.142V27.0563C259.142 23.9772 261.784 21.4796 265.04 21.4796H425.608C428.865 21.4796 431.507 23.9772 431.507 27.0563Z" fill="#FFD9D9"/>
<path d="M431.507 205.639V207.348H402.988L386.511 191.769C360.189 211.269 321.895 209.573 297.662 186.661C271.484 161.91 271.484 121.639 297.662 96.8885C323.84 72.1376 366.432 72.1376 392.61 96.8885C416.843 119.8 418.644 156.007 398.013 180.894L423.211 204.72C425.389 202.916 428.702 202.987 430.779 204.951L431.507 205.639Z" fill="#FF9494"/>
<path d="M431.507 50.4492V27.061C431.507 23.9778 428.863 21.4784 425.602 21.4784H265.046C261.785 21.4784 259.141 23.9778 259.141 27.061V50.4492H431.507Z" fill="#FF6C6C"/>
<path d="M310.511 50.4492L333.623 21.4784H265.043C261.784 21.4784 259.141 23.9767 259.141 27.0581V50.4486L310.511 50.4492Z" fill="#8383FF"/>
<path d="M412.247 39.7895H341.183C339.554 39.7895 338.232 38.54 338.232 36.9993C338.232 35.4586 339.553 34.2092 341.183 34.2092H412.247C413.876 34.2092 415.197 35.4586 415.197 36.9993C415.197 38.54 413.877 39.7895 412.247 39.7895Z" fill="#FFD9D9"/>
<path d="M393.802 247.71H296.846C295.113 247.71 293.708 249.039 293.708 250.677C293.708 252.315 295.113 253.643 296.846 253.643H393.802C395.535 253.643 396.939 252.315 396.939 250.677C396.939 249.039 395.535 247.71 393.802 247.71Z" fill="#9494FF"/>
<path d="M319.709 236.14H296.847C295.114 236.14 293.709 237.468 293.709 239.106C293.709 240.744 295.114 242.073 296.847 242.073H319.709C321.442 242.073 322.846 240.744 322.846 239.106C322.846 237.468 321.442 236.14 319.709 236.14Z" fill="#9494FF"/>
<path d="M334.792 236.14H382.271C384.003 236.14 385.408 237.468 385.408 239.106C385.408 240.744 384.003 242.073 382.271 242.073H334.657C332.822 242.073 331.356 240.584 331.535 238.815C331.69 237.273 333.153 236.14 334.792 236.14Z" fill="#9494FF"/>
<path d="M308.133 227.519C309.866 227.519 311.271 226.191 311.271 224.553C311.271 222.915 309.866 221.587 308.133 221.587C306.401 221.587 304.996 222.915 304.996 224.553C304.996 226.191 306.401 227.519 308.133 227.519Z" fill="#9494FF"/>
<path d="M297.937 227.519C299.67 227.519 301.074 226.191 301.074 224.553C301.074 222.915 299.67 221.587 297.937 221.587C296.204 221.587 294.8 222.915 294.8 224.553C294.8 226.191 296.204 227.519 297.937 227.519Z" fill="#9494FF"/>
<path d="M431.507 27.0563V267.802C431.507 270.881 428.865 273.379 425.608 273.379H265.04C261.784 273.379 259.142 270.881 259.142 267.802V27.0563C259.142 23.9772 261.784 21.4796 265.04 21.4796H425.608C428.865 21.4796 431.507 23.9772 431.507 27.0563Z" fill="url(#paint1_linear)"/>
<path d="M381.462 172.245L392.961 161.373L427.857 194.366L416.358 205.238L381.462 172.245Z" fill="#9494FF"/>
<path d="M381.501 172.242L393.21 183.312C395.305 181.718 397.324 180.003 399.267 178.165C401.21 176.328 403.025 174.419 404.711 172.439L393.002 161.368L381.501 172.242Z" fill="#8383FF"/>
<path d="M392.613 171.874C366.435 196.624 323.842 196.624 297.664 171.874C271.486 147.124 271.487 106.851 297.664 82.1009C323.841 57.3506 366.435 57.3506 392.613 82.1009C418.79 106.851 418.79 147.123 392.613 171.874Z" fill="#9494FF"/>
<path d="M345.108 174.73C372.995 174.73 395.602 153.355 395.602 126.988C395.602 100.621 372.995 79.2467 345.108 79.2467C317.221 79.2467 294.614 100.621 294.614 126.988C294.614 153.355 317.221 174.73 345.108 174.73Z" fill="#FFD9D9"/>
<path d="M376.384 89.4727L305.462 156.529C302.657 153.171 300.404 149.535 298.697 145.732L364.964 83.0774C368.986 84.691 372.832 86.8208 376.384 89.4727Z" fill="#FFEEEE"/>
<path d="M395.176 120.655L338.44 174.297C328.244 173.022 318.38 168.804 310.405 161.649L381.798 94.1476C389.365 101.688 393.827 111.014 395.176 120.655Z" fill="#FFEEEE"/>
<path d="M482.805 246.768L471.825 257.149C469.659 259.197 466.148 259.197 463.982 257.149L411.959 207.961C409.793 205.913 409.793 202.593 411.959 200.546L422.939 190.165C425.105 188.117 428.616 188.117 430.781 190.165L482.805 239.353C484.97 241.4 484.97 244.72 482.805 246.768Z" fill="#FF9494"/>
<path d="M455.307 248.948L463.982 257.149C466.148 259.197 469.659 259.197 471.824 257.149L482.804 246.768C484.97 244.72 484.97 241.4 482.804 239.353L474.13 231.151L455.307 248.948Z" fill="#8383FF"/>
<path d="M419.544 215.179L438.364 197.385L450.785 209.129L431.965 226.923L419.544 215.179Z" fill="#FF6C6C"/>
<path d="M341.267 144.349C339.534 144.349 338.13 143.021 338.13 141.383V137.814C338.13 135.512 338.769 133.238 339.976 131.238C341.826 128.178 344.944 125.909 348.531 125.012C354.008 123.643 357.833 118.94 357.833 113.575C357.833 110.354 356.488 107.342 354.045 105.096C351.604 102.85 348.382 101.665 344.967 101.752C338.413 101.924 332.963 107.106 332.817 113.305C332.786 114.599 332.975 115.873 333.376 117.093C333.89 118.657 332.966 120.319 331.311 120.806C329.658 121.292 327.898 120.419 327.384 118.854C326.781 117.021 326.498 115.11 326.544 113.173C326.766 103.705 334.783 96.0835 344.793 95.8212C349.923 95.6907 354.754 97.4705 358.421 100.843C362.088 104.216 364.108 108.738 364.108 113.575C364.108 121.629 358.362 128.691 350.134 130.747C348.162 131.24 346.446 132.491 345.425 134.181C344.757 135.286 344.404 136.542 344.404 137.814V141.383C344.404 143.021 343 144.349 341.267 144.349Z" fill="#FF4D4D"/>
<path d="M341.267 155.737C339.534 155.737 338.13 154.408 338.13 152.77V152.707C338.13 151.069 339.534 149.741 341.267 149.741C343 149.741 344.404 151.069 344.404 152.707V152.77C344.404 154.409 343 155.737 341.267 155.737Z" fill="#FF4D4D"/>
<path d="M259.141 239.484C273.785 239.484 285.656 228.26 285.656 214.415C285.656 200.57 273.785 189.346 259.141 189.346C244.498 189.346 232.627 200.57 232.627 214.415C232.627 228.26 244.498 239.484 259.141 239.484Z" fill="#FF6C6C"/>
<path d="M269.566 210.97C269.566 205.535 264.889 201.114 259.141 201.114C253.394 201.114 248.717 205.535 248.717 210.97C248.717 213.65 249.858 216.081 251.701 217.859C249.859 219.638 248.717 222.069 248.717 224.749C248.717 226.387 250.122 227.715 251.855 227.715C253.588 227.715 254.992 226.387 254.992 224.749C254.992 222.586 256.854 220.826 259.141 220.826C261.429 220.826 263.291 222.586 263.291 224.749C263.291 226.387 264.695 227.715 266.428 227.715C268.161 227.715 269.566 226.387 269.566 224.749C269.566 222.069 268.425 219.638 266.582 217.859C268.425 216.081 269.566 213.65 269.566 210.97ZM259.141 207.047C261.429 207.047 263.291 208.807 263.291 210.97C263.291 213.133 261.429 214.893 259.141 214.893C256.854 214.893 254.992 213.133 254.992 210.97C254.992 208.807 256.853 207.047 259.141 207.047Z" fill="white"/>
<path d="M472.935 91.9039H471.053V90.1241C471.053 88.4861 469.649 87.1578 467.916 87.1578C466.183 87.1578 464.778 88.4861 464.778 90.1241V91.9039H462.896C461.163 91.9039 459.759 93.2322 459.759 94.8702C459.759 96.5082 461.163 97.8365 462.896 97.8365H464.778V99.6163C464.778 101.254 466.183 102.583 467.916 102.583C469.649 102.583 471.053 101.254 471.053 99.6163V97.8365H472.935C474.669 97.8365 476.073 96.5082 476.073 94.8702C476.073 93.2322 474.669 91.9039 472.935 91.9039Z" fill="#8383FF"/>
<path d="M240.774 149.208H238.891V147.428C238.891 145.79 237.487 144.462 235.754 144.462C234.021 144.462 232.617 145.79 232.617 147.428V149.208H230.734C229.001 149.208 227.597 150.537 227.597 152.175C227.597 153.813 229.001 155.141 230.734 155.141H232.617V156.921C232.617 158.559 234.021 159.887 235.754 159.887C237.487 159.887 238.891 158.559 238.891 156.921V155.141H240.774C242.507 155.141 243.911 153.813 243.911 152.175C243.911 150.537 242.507 149.208 240.774 149.208Z" fill="#FF9D33"/>
<path d="M460.876 125.092C460.074 125.092 459.27 124.803 458.658 124.224L455.857 121.575L453.055 124.224C451.831 125.382 449.843 125.382 448.619 124.224C447.393 123.065 447.393 121.187 448.619 120.029L453.638 115.283C454.863 114.125 456.85 114.125 458.075 115.283L463.094 120.029C464.32 121.187 464.32 123.066 463.094 124.224C462.483 124.803 461.679 125.092 460.876 125.092Z" fill="#FF6C6C"/>
<path d="M235.754 180.053C234.951 180.053 234.148 179.764 233.536 179.185L230.734 176.536L227.933 179.185C226.708 180.343 224.721 180.343 223.496 179.185C222.271 178.026 222.271 176.148 223.496 174.99L228.516 170.244C229.74 169.086 231.728 169.086 232.952 170.244L237.972 174.99C239.198 176.148 239.198 178.027 237.972 179.185C237.36 179.763 236.557 180.053 235.754 180.053Z" fill="#8383FF"/>
<path d="M486.74 219.754C485.937 219.754 485.133 219.465 484.522 218.886L481.72 216.237L478.918 218.886C477.694 220.044 475.706 220.044 474.482 218.886C473.257 217.727 473.257 215.849 474.482 214.691L479.502 209.945C480.726 208.787 482.714 208.787 483.938 209.945L488.958 214.691C490.183 215.849 490.183 217.728 488.958 218.886C488.346 219.465 487.542 219.754 486.74 219.754Z" fill="#FF9D33"/>
</g>
<g clip-path="url(#clip1)">
<path d="M240.072 242.809C239.951 242.808 239.83 242.808 239.71 242.808C219.609 242.778 200.565 234.595 187.354 220.272C167.673 198.936 138.663 185.494 106.335 185.63C47.6597 185.876 -0.749833 232.486 0.00877141 287.959C0.763611 343.124 48.2953 387.624 106.82 387.624C123.349 387.624 139 384.072 152.968 377.733C165.012 372.267 179.363 373.708 189.969 381.388C203.687 391.322 220.834 397.236 239.442 397.265C284.231 397.336 321 362.844 321.26 320.497C321.523 277.753 285.218 243.061 240.072 242.809Z" fill="url(#paint2_linear)"/>
<path d="M160.631 319.519C207.679 319.519 245.819 283.458 245.819 238.974C245.819 194.49 207.679 158.429 160.631 158.429C113.583 158.429 75.4425 194.49 75.4425 238.974C75.4425 283.458 113.583 319.519 160.631 319.519Z" fill="#8399FE"/>
<path d="M241.075 265.542C244.15 257.226 245.822 248.286 245.822 238.974C245.822 234.625 245.458 230.359 244.755 226.195H76.5067C75.804 230.359 75.44 234.625 75.44 238.974C75.44 248.287 77.1116 257.226 80.1868 265.542H241.075Z" fill="#6583FE"/>
<path d="M160.631 304.14C184.406 304.14 206.196 292.781 218.92 273.756C219.847 272.372 219.41 270.539 217.946 269.664C216.479 268.788 214.543 269.202 213.618 270.586C202.05 287.881 182.241 298.207 160.631 298.207C139.02 298.207 119.212 287.881 107.644 270.585C106.719 269.201 104.782 268.788 103.316 269.664C101.852 270.539 101.415 272.371 102.341 273.755C115.066 292.782 136.856 304.14 160.631 304.14Z" fill="#6583FE"/>
<path d="M218.92 204.191C206.196 185.166 184.405 173.808 160.631 173.808C136.857 173.808 115.066 185.166 102.341 204.191C101.415 205.576 101.852 207.408 103.316 208.283C104.78 209.158 106.719 208.746 107.644 207.362C119.213 190.066 139.021 179.74 160.631 179.74C182.241 179.74 202.05 190.066 213.618 207.362C214.214 208.254 215.232 208.743 216.272 208.743C216.845 208.743 217.425 208.594 217.946 208.283C219.41 207.408 219.847 205.576 218.92 204.191Z" fill="#6583FE"/>
<path d="M160.631 319.519C207.679 319.519 245.819 283.458 245.819 238.974C245.819 194.49 207.679 158.429 160.631 158.429C113.583 158.429 75.4425 194.49 75.4425 238.974C75.4425 283.458 113.583 319.519 160.631 319.519Z" fill="url(#paint3_linear)"/>
<path d="M309.026 223.695V252.753C309.026 256.033 306.216 258.684 302.753 258.684H18.5089C15.046 258.684 12.2356 256.033 12.2356 252.753V223.695C12.2356 220.42 15.046 217.763 18.5089 217.763H302.753C306.216 217.763 309.026 220.42 309.026 223.695Z" fill="white"/>
<path d="M245.816 238.974C245.816 245.772 244.925 252.379 243.244 258.684H78.0177C76.3367 252.379 75.4457 245.772 75.4457 238.974C75.4457 231.631 76.4873 224.519 78.4318 217.764H242.83C244.774 224.519 245.816 231.631 245.816 238.974Z" fill="#FFC4DF"/>
<path d="M309.026 223.695V252.753C309.026 256.033 306.216 258.684 302.753 258.684H18.5089C15.046 258.684 12.2356 256.033 12.2356 252.753V223.695C12.2356 220.42 15.046 217.763 18.5089 217.763H302.753C306.216 217.763 309.026 220.42 309.026 223.695Z" fill="url(#paint4_linear)"/>
<path d="M54.9778 258.686H18.5114C15.0466 258.686 12.2381 256.031 12.2381 252.755V223.694C12.2381 220.418 15.0466 217.763 18.5114 217.763H54.9778V258.686Z" fill="#B7C5FF"/>
<path d="M174.432 343.941V430.989C174.432 434.269 171.622 436.921 168.159 436.921H153.103C149.64 436.921 146.829 434.269 146.829 430.989V343.941C146.829 340.666 149.64 338.009 153.103 338.009H168.159C171.622 338.009 174.432 340.666 174.432 343.941Z" fill="#FF7EB8"/>
<path d="M146.829 359.872H174.432V370.934H146.829V359.872Z" fill="#FF5BA8"/>
<path d="M146.829 416.677H174.432V427.745H146.829V416.677Z" fill="#FF5BA8"/>
<path d="M175.059 364.709H146.202C144.47 364.709 143.066 363.381 143.066 361.743V356.61C143.066 354.972 144.47 353.644 146.202 353.644H175.059C176.792 353.644 178.196 354.972 178.196 356.61V361.743C178.196 363.381 176.792 364.709 175.059 364.709Z" fill="#97FFD2"/>
<path d="M175.059 421.515H146.202C144.47 421.515 143.066 420.188 143.066 418.55V413.416C143.066 411.778 144.47 410.451 146.202 410.451H175.059C176.792 410.451 178.196 411.778 178.196 413.416V418.55C178.196 420.187 176.792 421.515 175.059 421.515Z" fill="#97FFD2"/>
<path d="M134.702 249.209C133.56 249.209 132.5 248.621 131.947 247.661L129.307 243.074L126.667 247.661C126.069 248.701 124.875 249.302 123.626 249.197C122.379 249.088 121.319 248.289 120.931 247.163L115.91 232.625C115.372 231.068 116.272 229.394 117.919 228.886C119.565 228.379 121.337 229.227 121.874 230.785L124.635 238.782L126.552 235.452C127.101 234.498 128.158 233.904 129.307 233.904C130.456 233.904 131.513 234.498 132.062 235.452L133.979 238.782L136.741 230.785C137.278 229.228 139.05 228.377 140.696 228.886C142.342 229.394 143.242 231.068 142.704 232.625L137.683 247.163C137.295 248.289 136.235 249.088 134.988 249.197C134.892 249.205 134.796 249.209 134.702 249.209Z" fill="#FF5BA8"/>
<path d="M166.025 249.209C164.884 249.209 163.823 248.621 163.271 247.661L160.631 243.075L157.991 247.661C157.393 248.701 156.201 249.302 154.95 249.197C153.702 249.089 152.643 248.289 152.254 247.164L147.234 232.626C146.696 231.069 147.595 229.395 149.242 228.886C150.889 228.38 152.66 229.228 153.197 230.785L155.959 238.783L157.876 235.453C158.425 234.499 159.482 233.905 160.631 233.905C161.78 233.905 162.837 234.499 163.386 235.453L165.303 238.783L168.064 230.785C168.602 229.229 170.375 228.377 172.019 228.886C173.666 229.395 174.566 231.069 174.027 232.626L169.007 247.164C168.618 248.289 167.559 249.089 166.311 249.197C166.215 249.205 166.12 249.209 166.025 249.209Z" fill="#FF5BA8"/>
<path d="M197.349 249.209C196.207 249.209 195.147 248.621 194.594 247.661L191.955 243.074L189.315 247.661C188.717 248.701 187.523 249.302 186.273 249.197C185.026 249.088 183.966 248.289 183.578 247.163L178.558 232.625C178.02 231.068 178.919 229.394 180.566 228.886C182.213 228.379 183.984 229.227 184.521 230.785L187.282 238.782L189.199 235.452C189.748 234.498 190.806 233.904 191.955 233.904C193.103 233.904 194.161 234.498 194.71 235.452L196.627 238.782L199.388 230.785C199.926 229.228 201.697 228.377 203.343 228.886C204.989 229.394 205.889 231.068 205.352 232.625L200.331 247.163C199.943 248.289 198.883 249.088 197.636 249.197C197.539 249.205 197.444 249.209 197.349 249.209Z" fill="#FF5BA8"/>
<path d="M163.768 338.009V319.467C164.335 319.439 156.995 319.442 157.494 319.466V338.008L163.768 338.009Z" fill="#2626BC"/>
<path d="M43.1633 229.869C39.3909 226.301 33.2525 226.301 29.4802 229.869C26.4846 232.7 25.8766 236.94 27.6379 240.353L23.1923 244.556C21.9669 245.714 21.9669 247.592 23.1923 248.75C23.8047 249.33 24.6079 249.62 25.4104 249.62C26.2129 249.62 27.0167 249.33 27.6285 248.75L32.0741 244.547C33.4106 245.164 34.8644 245.481 36.3214 245.481C38.7992 245.481 41.2765 244.589 43.1626 242.805C46.9362 239.239 46.9362 233.435 43.1633 229.869ZM38.7271 238.611C37.4013 239.865 35.2428 239.865 33.917 238.611C32.5911 237.357 32.5911 235.317 33.917 234.063C34.5802 233.436 35.4511 233.123 36.322 233.123C37.1929 233.123 38.0639 233.436 38.7271 234.063C40.0529 235.317 40.0529 237.357 38.7271 238.611Z" fill="#6583FE"/>
<path d="M238.917 339.057C237.184 339.057 235.78 337.729 235.78 336.09C235.78 334.129 234.092 332.534 232.018 332.534C230.285 332.534 228.881 331.206 228.881 329.568C228.881 327.929 230.285 326.601 232.018 326.601C234.092 326.601 235.78 325.006 235.78 323.045C235.78 321.406 237.184 320.078 238.917 320.078C240.65 320.078 242.054 321.406 242.054 323.045C242.054 325.006 243.742 326.601 245.816 326.601C247.549 326.601 248.953 327.929 248.953 329.568C248.953 331.206 247.549 332.534 245.816 332.534C243.742 332.534 242.054 334.129 242.054 336.09C242.054 337.728 240.65 339.057 238.917 339.057Z" fill="#FF7EB8"/>
<path d="M258.742 200.765C257.009 200.765 255.605 199.437 255.605 197.798C255.605 195.837 253.918 194.242 251.843 194.242C250.11 194.242 248.706 192.914 248.706 191.275C248.706 189.637 250.11 188.309 251.843 188.309C253.918 188.309 255.605 186.714 255.605 184.752C255.605 183.114 257.009 181.786 258.742 181.786C260.475 181.786 261.88 183.114 261.88 184.752C261.88 186.714 263.567 188.309 265.641 188.309C267.374 188.309 268.779 189.637 268.779 191.275C268.779 192.914 267.374 194.242 265.641 194.242C263.567 194.242 261.88 195.837 261.88 197.798C261.88 199.437 260.475 200.765 258.742 200.765Z" fill="#97FFD2"/>
<path d="M54.9778 296.162C53.2447 296.162 51.8405 294.834 51.8405 293.195C51.8405 291.234 50.1532 289.639 48.0788 289.639C46.3458 289.639 44.9415 288.311 44.9415 286.672C44.9415 285.034 46.3458 283.706 48.0788 283.706C50.1532 283.706 51.8405 282.111 51.8405 280.149C51.8405 278.511 53.2447 277.183 54.9778 277.183C56.7109 277.183 58.1151 278.511 58.1151 280.149C58.1151 282.111 59.8024 283.706 61.8768 283.706C63.6098 283.706 65.0141 285.034 65.0141 286.672C65.0141 288.311 63.6098 289.639 61.8768 289.639C59.8024 289.639 58.1151 291.234 58.1151 293.195C58.1151 294.834 56.7109 296.162 54.9778 296.162Z" fill="#FF7EB8"/>
<path d="M75.4425 333.858C74.64 333.858 73.8362 333.569 73.2244 332.989L66.3261 326.467C65.1007 325.309 65.1007 323.43 66.3261 322.272L73.2244 315.75C74.4486 314.591 76.4364 314.591 77.6606 315.75L84.559 322.272C85.7844 323.43 85.7844 325.309 84.559 326.467L77.6606 332.989C77.0488 333.569 76.2457 333.858 75.4425 333.858ZM72.981 324.369L75.4425 326.697L77.9041 324.369L75.4425 322.042L72.981 324.369Z" fill="#6583FE"/>
</g>
<g clip-path="url(#clip2)">
<path d="M497.909 316.215C486.014 311.832 475.965 303.833 469.819 293.253C459.483 275.461 439.484 263.401 416.499 263.401C392.64 263.401 372.001 276.394 362.046 295.304C355.949 306.885 345.575 315.978 332.887 320.819C314.139 327.974 298.4 344.324 293.406 369.886C292.858 372.691 292.85 375.575 293.398 378.379C301.152 418.044 334.76 435.539 365.347 430.9C382.478 428.302 399.819 433.704 412.516 444.883C438.334 467.613 479.722 474.739 519.899 450.374C524.606 447.52 530.921 441.53 533.937 437.078C568.556 385.977 542.912 332.799 497.909 316.215Z" fill="url(#paint5_linear)"/>
<path d="M449.962 463.715H393.028L400.448 435.901L404.414 421.045H438.576L442.542 435.901L449.962 463.715Z" fill="#9FB0FE"/>
<path d="M442.542 435.901H400.448L404.414 421.045H438.576L442.542 435.901Z" fill="#8399FE"/>
<path d="M521.89 301.42V422.09C521.89 426.019 518.516 429.209 514.36 429.209H328.631C324.474 429.209 321.101 426.019 321.101 422.09V301.42C321.101 297.49 324.474 294.301 328.631 294.301H514.36C518.516 294.301 521.89 297.49 521.89 301.42Z" fill="white"/>
<path d="M355.15 294.301H487.841V405.292H355.15V294.301Z" fill="#97FFD2"/>
<path d="M369.206 414.312H337.75C336.918 414.312 336.244 413.674 336.244 412.888V391.689C336.244 390.902 336.918 390.265 337.75 390.265H369.207C370.039 390.265 370.713 390.902 370.713 391.689V412.888C370.712 413.674 370.038 414.312 369.206 414.312Z" fill="#6583FE"/>
<path d="M363.978 414.311H351.931V400.356C351.931 399.57 352.605 398.932 353.437 398.932H362.472C363.304 398.932 363.978 399.57 363.978 400.356V414.311Z" fill="#9FB0FE"/>
<path d="M414.552 414.312H383.094C382.263 414.312 381.589 413.674 381.589 412.888V391.689C381.589 390.902 382.263 390.265 383.094 390.265H414.552C415.383 390.265 416.057 390.902 416.057 391.689V412.888C416.057 413.674 415.383 414.312 414.552 414.312Z" fill="#6583FE"/>
<path d="M409.323 414.311H397.276V400.356C397.276 399.57 397.95 398.932 398.782 398.932H407.817C408.649 398.932 409.323 399.57 409.323 400.356V414.311Z" fill="#9FB0FE"/>
<path d="M459.896 414.312H428.439C427.607 414.312 426.933 413.674 426.933 412.888V391.689C426.933 390.902 427.607 390.265 428.439 390.265H459.896C460.728 390.265 461.402 390.902 461.402 391.689V412.888C461.402 413.674 460.728 414.312 459.896 414.312Z" fill="#6583FE"/>
<path d="M454.668 414.311H442.621V400.356C442.621 399.57 443.295 398.932 444.127 398.932H453.162C453.994 398.932 454.668 399.57 454.668 400.356V414.311Z" fill="#9FB0FE"/>
<path d="M505.241 414.312H473.784C472.952 414.312 472.278 413.674 472.278 412.888V391.689C472.278 390.902 472.952 390.265 473.784 390.265H505.241C506.072 390.265 506.747 390.902 506.747 391.689V412.888C506.747 413.674 506.072 414.312 505.241 414.312Z" fill="#6583FE"/>
<path d="M500.013 414.311H487.965V400.356C487.965 399.57 488.64 398.932 489.471 398.932H498.507C499.339 398.932 500.013 399.57 500.013 400.356V414.311Z" fill="#9FB0FE"/>
<path d="M521.89 317.163V301.42C521.89 297.488 518.518 294.301 514.36 294.301H328.631C324.472 294.301 321.101 297.488 321.101 301.42V317.163H521.89Z" fill="#FF7EB8"/>
<path d="M321.101 405.292V422.089C321.101 426.02 324.472 429.208 328.631 429.208H514.36C518.518 429.208 521.89 426.02 521.89 422.089V405.292H321.101Z" fill="#B7C5FF"/>
<path d="M369.206 352.229H337.75C336.918 352.229 336.244 351.592 336.244 350.805V329.606C336.244 328.819 336.918 328.182 337.75 328.182H369.207C370.039 328.182 370.713 328.819 370.713 329.606V350.805C370.712 351.592 370.038 352.229 369.206 352.229Z" fill="#6583FE"/>
<path d="M363.978 352.229H351.931V338.274C351.931 337.487 352.605 336.85 353.437 336.85H362.472C363.304 336.85 363.978 337.487 363.978 338.274V352.229Z" fill="#9FB0FE"/>
<path d="M414.552 352.229H383.094C382.263 352.229 381.589 351.592 381.589 350.805V329.606C381.589 328.819 382.263 328.182 383.094 328.182H414.552C415.383 328.182 416.057 328.819 416.057 329.606V350.805C416.057 351.592 415.383 352.229 414.552 352.229Z" fill="#6583FE"/>
<path d="M409.323 352.229H397.276V338.274C397.276 337.487 397.95 336.85 398.782 336.85H407.817C408.649 336.85 409.323 337.487 409.323 338.274V352.229Z" fill="#9FB0FE"/>
<path d="M459.896 352.229H428.439C427.607 352.229 426.933 351.592 426.933 350.805V329.606C426.933 328.819 427.607 328.182 428.439 328.182H459.896C460.728 328.182 461.402 328.819 461.402 329.606V350.805C461.402 351.592 460.728 352.229 459.896 352.229Z" fill="#6583FE"/>
<path d="M454.668 352.229H442.621V338.274C442.621 337.487 443.295 336.85 444.127 336.85H453.162C453.994 336.85 454.668 337.487 454.668 338.274V352.229Z" fill="#9FB0FE"/>
<path d="M505.241 352.229H473.784C472.952 352.229 472.278 351.592 472.278 350.805V329.606C472.278 328.819 472.952 328.182 473.784 328.182H505.241C506.072 328.182 506.747 328.819 506.747 329.606V350.805C506.747 351.592 506.072 352.229 505.241 352.229Z" fill="#6583FE"/>
<path d="M500.013 352.229H487.965V338.274C487.965 337.487 488.64 336.85 489.471 336.85H498.507C499.339 336.85 500.013 337.487 500.013 338.274V352.229Z" fill="#9FB0FE"/>
<path d="M369.206 383.27H337.75C336.918 383.27 336.244 382.633 336.244 381.846V360.647C336.244 359.861 336.918 359.223 337.75 359.223H369.207C370.039 359.223 370.713 359.861 370.713 360.647V381.846C370.712 382.633 370.038 383.27 369.206 383.27Z" fill="#6583FE"/>
<path d="M363.978 383.27H351.931V369.315C351.931 368.528 352.605 367.891 353.437 367.891H362.472C363.304 367.891 363.978 368.528 363.978 369.315V383.27Z" fill="#9FB0FE"/>
<path d="M414.552 383.27H383.094C382.263 383.27 381.589 382.633 381.589 381.846V360.647C381.589 359.861 382.263 359.223 383.094 359.223H414.552C415.383 359.223 416.057 359.861 416.057 360.647V381.846C416.057 382.633 415.383 383.27 414.552 383.27Z" fill="#6583FE"/>
<path d="M409.323 383.27H397.276V369.315C397.276 368.528 397.95 367.891 398.782 367.891H407.817C408.649 367.891 409.323 368.528 409.323 369.315V383.27Z" fill="#9FB0FE"/>
<path d="M459.896 383.27H428.439C427.607 383.27 426.933 382.633 426.933 381.846V360.647C426.933 359.861 427.607 359.223 428.439 359.223H459.896C460.728 359.223 461.402 359.861 461.402 360.647V381.846C461.402 382.633 460.728 383.27 459.896 383.27Z" fill="#6583FE"/>
<path d="M454.668 383.27H442.621V369.315C442.621 368.528 443.295 367.891 444.127 367.891H453.162C453.994 367.891 454.668 368.528 454.668 369.315V383.27Z" fill="#9FB0FE"/>
<path d="M505.241 383.27H473.784C472.952 383.27 472.278 382.633 472.278 381.846V360.647C472.278 359.861 472.952 359.223 473.784 359.223H505.241C506.072 359.223 506.747 359.861 506.747 360.647V381.846C506.747 382.633 506.072 383.27 505.241 383.27Z" fill="#6583FE"/>
<path d="M500.013 383.27H487.965V369.315C487.965 368.528 488.64 367.891 489.471 367.891H498.507C499.339 367.891 500.013 368.528 500.013 369.315V383.27Z" fill="#9FB0FE"/>
<path d="M521.89 301.42V422.09C521.89 426.019 518.516 429.209 514.36 429.209H328.631C324.474 429.209 321.101 426.019 321.101 422.09V301.42C321.101 297.49 324.474 294.301 328.631 294.301H514.36C518.516 294.301 521.89 297.49 521.89 301.42Z" fill="url(#paint6_linear)"/>
<path d="M469.174 453.432C468.531 453.432 467.889 453.2 467.399 452.737L461.868 447.508C460.888 446.581 460.888 445.078 461.868 444.152L467.399 438.923C468.379 437.996 469.968 437.996 470.948 438.923L476.479 444.152C477.459 445.079 477.459 446.581 476.479 447.508L470.948 452.737C470.458 453.2 469.816 453.432 469.174 453.432ZM467.192 445.83L469.174 447.703L471.155 445.83L469.174 443.956L467.192 445.83Z" fill="#6583FE"/>
<path d="M493.989 459.619C493.346 459.619 492.704 459.387 492.214 458.924L486.683 453.695C485.703 452.768 485.703 451.265 486.683 450.339L492.214 445.11C492.685 444.664 493.323 444.415 493.989 444.415C494.655 444.415 495.293 444.665 495.764 445.11L501.295 450.339C501.766 450.784 502.03 451.387 502.03 452.017C502.03 452.647 501.765 453.25 501.295 453.695L495.764 458.924C495.274 459.388 494.631 459.619 493.989 459.619ZM492.008 452.017L493.989 453.89L495.97 452.017L493.989 450.143L492.008 452.017Z" fill="#FF7EB8"/>
<path d="M397.276 285.514C395.89 285.514 394.766 284.451 394.766 283.141C394.766 281.566 393.411 280.284 391.745 280.284C390.359 280.284 389.235 279.222 389.235 277.911C389.235 276.601 390.359 275.538 391.745 275.538C393.411 275.538 394.766 274.257 394.766 272.682C394.766 271.372 395.89 270.309 397.276 270.309C398.662 270.309 399.786 271.372 399.786 272.682C399.786 274.257 401.141 275.538 402.806 275.538C404.192 275.538 405.316 276.601 405.316 277.911C405.316 279.222 404.192 280.284 402.806 280.284C401.141 280.284 399.786 281.566 399.786 283.141C399.786 284.451 398.662 285.514 397.276 285.514Z" fill="#FF7EB8"/>
<path d="M369.509 278.119C368.123 278.119 366.999 277.057 366.999 275.746C366.999 274.171 365.644 272.89 363.978 272.89C362.592 272.89 361.469 271.827 361.469 270.517C361.469 269.207 362.592 268.144 363.978 268.144C365.644 268.144 366.999 266.862 366.999 265.288C366.999 263.977 368.123 262.915 369.509 262.915C370.895 262.915 372.019 263.977 372.019 265.288C372.019 266.862 373.374 268.144 375.04 268.144C376.426 268.144 377.55 269.207 377.55 270.517C377.55 271.827 376.426 272.89 375.04 272.89C373.374 272.89 372.019 274.171 372.019 275.746C372.019 277.057 370.895 278.119 369.509 278.119Z" fill="#97FFD2"/>
<path d="M340.217 308.14C341.603 308.14 342.727 307.077 342.727 305.767V305.698C342.727 304.387 341.603 303.325 340.217 303.325C338.831 303.325 337.707 304.387 337.707 305.698V305.767C337.707 307.077 338.831 308.14 340.217 308.14Z" fill="#FE2C8F"/>
<path d="M349.918 308.14C351.304 308.14 352.428 307.077 352.428 305.767V305.698C352.428 304.387 351.304 303.325 349.918 303.325C348.532 303.325 347.408 304.387 347.408 305.698V305.767C347.408 307.077 348.532 308.14 349.918 308.14Z" fill="#FE2C8F"/>
<path d="M359.618 308.14C361.004 308.14 362.128 307.077 362.128 305.767V305.698C362.128 304.387 361.004 303.325 359.618 303.325C358.232 303.325 357.108 304.387 357.108 305.698V305.767C357.108 307.077 358.232 308.14 359.618 308.14Z" fill="#FE2C8F"/>
<path d="M459.612 461.339H383.379C381.993 461.339 380.869 462.402 380.869 463.712C380.869 465.023 381.993 466.085 383.379 466.085H459.612C460.998 466.085 462.122 465.023 462.122 463.712C462.122 462.402 460.998 461.339 459.612 461.339Z" fill="#6583FE"/>
</g>
<defs>
<linearGradient id="paint0_linear" x1="472.152" y1="44.4442" x2="210.884" y2="320.775" gradientUnits="userSpaceOnUse">
<stop stop-color="#FFD9D9" stop-opacity="0"/>
<stop offset="0.9981" stop-color="#FFB3B3"/>
</linearGradient>
<linearGradient id="paint1_linear" x1="345.324" y1="273.379" x2="345.324" y2="21.4796" gradientUnits="userSpaceOnUse">
<stop stop-color="#FF4D4D" stop-opacity="0.4"/>
<stop offset="1" stop-color="#FF4D4D" stop-opacity="0"/>
</linearGradient>
<linearGradient id="paint2_linear" x1="-11.7123" y1="255.97" x2="328.788" y2="354.481" gradientUnits="userSpaceOnUse">
<stop offset="0.0485" stop-color="#FFDBED"/>
<stop offset="0.9993" stop-color="#D2DEFF"/>
</linearGradient>
<linearGradient id="paint3_linear" x1="160.631" y1="158.429" x2="160.631" y2="319.519" gradientUnits="userSpaceOnUse">
<stop offset="0.0028" stop-color="#FF7EB8" stop-opacity="0"/>
<stop offset="1" stop-color="#FF7EB8" stop-opacity="0.6"/>
</linearGradient>
<linearGradient id="paint4_linear" x1="160.631" y1="217.763" x2="160.631" y2="258.684" gradientUnits="userSpaceOnUse">
<stop offset="0.0028" stop-color="#FF7EB8" stop-opacity="0"/>
<stop offset="1" stop-color="#FF7EB8" stop-opacity="0.6"/>
</linearGradient>
<linearGradient id="paint5_linear" x1="310.521" y1="292.563" x2="525.208" y2="467.227" gradientUnits="userSpaceOnUse">
<stop stop-color="#FFDBED"/>
<stop offset="1" stop-color="#DCFDEE"/>
</linearGradient>
<linearGradient id="paint6_linear" x1="421.495" y1="294.301" x2="421.495" y2="429.209" gradientUnits="userSpaceOnUse">
<stop offset="0.0028" stop-color="#FF7EB8" stop-opacity="0"/>
<stop offset="1" stop-color="#FF7EB8" stop-opacity="0.6"/>
</linearGradient>
<clipPath id="clip0">
<rect width="321.262" height="303.75" fill="white" transform="translate(197.897)"/>
</clipPath>
<clipPath id="clip1">
<rect width="321.262" height="303.75" fill="white" transform="translate(0 145.8)"/>
</clipPath>
<clipPath id="clip2">
<rect width="257.009" height="243" fill="white" transform="translate(292.991 243)"/>
</clipPath>
</defs>
</svg>
